<?xml version="1.0" encoding="utf-8"?>
<!-- Generator: Adobe Illustrator 23.0.5, SVG Export Plug-In . SVG Version: 6.00 Build 0)  -->
<svg version="1.1" id="Layer_1" xmlns="http://www.w3.org/2000/svg" xmlns:xlink="http://www.w3.org/1999/xlink" x="0px" y="0px"
	 viewBox="0 0 1397.5 486.8" style="enable-background:new 0 0 1397.5 486.8;" xml:space="preserve">
<style type="text/css">
	.st0{fill:url(#SVGID_1_);}
	.st1{fill:url(#SVGID_2_);}
	.st2{fill:url(#SVGID_3_);}
	.st3{fill:none;}
	.st4{fill:#646464;}
	.st5{fill:#494949;}
	.st6{fill:#272727;}
	.st7{fill:#030303;}
	.st8{fill:#089FC5;}
	.st9{fill:none;stroke:#010101;stroke-width:15;stroke-miterlimit:10;}
	.st10{fill:#010101;}
	.st11{fill:url(#SVGID_4_);}
</style>
<g>
	<linearGradient id="SVGID_1_" gradientUnits="userSpaceOnUse" x1="0" y1="323.558" x2="235.0852" y2="323.558">
		<stop  offset="0.2609" style="stop-color:#68C6DD"/>
		<stop  offset="0.7859" style="stop-color:#02A0C6"/>
	</linearGradient>
	<path class="st0" d="M213,410.3c-30.9-14.4-89.5-44.9-131.3-97.8c-41.4-52.3-26.8-145.2-23.8-151.6l0,0c0,0,0-0.1,0.1-0.1l0.1-0.2
		c0,0,0,0,0-0.1l0,0l-38.9,38.8c-16,15.9-29.5,26.2-8.6,58.9l0,0c2.2,4.2,5.1,8.1,8.6,11.6l0.2,0.2l162.7,216.8l52.9-67.1
		C235.1,419.6,226.6,416.6,213,410.3z"/>
	<linearGradient id="SVGID_2_" gradientUnits="userSpaceOnUse" x1="256.0164" y1="292.6653" x2="242.3338" y2="60.845">
		<stop  offset="0.2609" style="stop-color:#68C6DD"/>
		<stop  offset="0.7859" style="stop-color:#02A0C6"/>
	</linearGradient>
	<path class="st1" d="M355.7,269.7l-30.1,30.1c-32.4-8.5-94.4-28.4-138.2-65.3c-47.4-40.1-58.5-111.5-61.1-142.3l25.9-25.9
		c19.5-19.5,51-19.5,70.5,0l133,132.9C375.2,218.7,375.2,250.2,355.7,269.7z"/>
	<linearGradient id="SVGID_3_" gradientUnits="userSpaceOnUse" x1="106.1166" y1="181.8524" x2="105.6821" y2="174.4911">
		<stop  offset="0.2609" style="stop-color:#68C6DD"/>
		<stop  offset="0.7859" style="stop-color:#02A0C6"/>
	</linearGradient>
	<path class="st2" d="M107.1,182.1l-0.6,0.1c-0.7-2.7-1.3-5.4-1.9-8C105.4,176.8,106.2,179.4,107.1,182.1z"/>
	<line class="st3" x1="104.7" y1="174.2" x2="104.7" y2="174.2"/>
	<path class="st4" d="M107.4,183l-0.6,0.2l-22.3,5.4c0-13.5,2-27.6,6.3-39.1h8.8c1,8.1,2.8,16.4,5.2,24.8v0
		C105.4,176.8,106.5,180.3,107.4,183z"/>
	<path class="st5" d="M136.5,252.8l-26.3,21.8c-11-19-19.2-42.4-23.1-61.4l26.9-6.5C119,219.9,128.4,240.4,136.5,252.8z"/>
	<path class="st6" d="M199.7,306.6l-33.3,33.3c-10.8-8.3-17.9-15.4-27.6-26.2c-4.2-4.7-11.3-13.5-15.1-18.4l28.5-23.8
		c2.6,2.6,6.5,6.3,9.3,8.7C172.6,289.5,187.1,299.2,199.7,306.6z"/>
	<path class="st7" d="M294.6,345l-35.1,41.5c-24.5-8.4-49.3-18.8-72.7-32.3l35.7-35.7l1.4,0.5C250,331.2,275.5,339.6,294.6,345z"/>
	<g>
		<path d="M832.2,132.5h88.9c7.3,0,13.3,6.1,13.3,13.9c0,7.5-6,13.7-13.3,13.7h-41.4v154.2c0,7.8-6,13.9-13.3,13.9
			c-7.6,0-13.6-6.1-13.6-13.9V160.1h-20.7c-7.6,0-13.6-6.1-13.6-13.7C818.6,138.6,824.6,132.5,832.2,132.5z"/>
		<path d="M991.5,201.9c0,7.5-6,13.9-13.6,13.9c-22.9,0-41.4,19-41.4,42.4v56c0,7.5-6,13.9-13.3,13.9c-7.6,0-13.6-6.4-13.6-13.9v-56
			c0-38.8,30.7-70,68.3-70C985.5,188.3,991.5,194.4,991.5,201.9z"/>
		<path d="M1127.3,259.1v54.7c0,8.1-5.7,13.9-13.6,13.9c-5.4,0-13.1-5.9-13.1-13.9c-11.7,10-24.8,13.9-40.3,13.9
			c-38.4,0-68.8-29.3-68.8-68.6s30.5-70.5,68.8-70.5C1098.7,188.5,1127.3,219.8,1127.3,259.1z M1100.6,259.1
			c0-23.4-17.4-43.2-40.3-43.2c-22.9,0-42.2,19.8-42.2,43.2c0,23.4,19.3,41.3,42.2,41.3C1083.2,300.3,1100.6,282.5,1100.6,259.1z"/>
		<path d="M1141.6,258.2c0-38.8,30.5-70,68-70c24.5,0,47.1,13.4,59.3,34.9c3.8,6.7,1.4,15.1-4.9,19c-6.5,3.6-14.7,1.4-18.5-5
			c-7.3-13.1-20.9-21.2-35.9-21.2c-22.6,0-41.4,19-41.4,42.4c0,23.1,18.8,42.4,41.4,42.4c14.1,0,27.2-7.2,34.8-19.5
			c4.1-6.4,12.5-8.1,18.8-4.2c6.3,4.2,7.9,12.8,3.8,19.2c-12.5,20.1-34,32.1-57.4,32.1C1172.1,328.2,1141.6,296.7,1141.6,258.2z"/>
		<path d="M1392.6,324c-2.4,2.2-5.4,3.3-8.4,3.3c-4.1,0-7.9-1.7-10.3-5l-51.7-63.6l-8.4,5.9v48.8c0,7.8-6.3,13.9-13.6,13.9
			c-7.3,0-13.3-6.1-13.3-13.9v-56V132.8c0-7.5,6-13.7,13.3-13.7c7.3,0,13.6,6.1,13.6,13.7V232l61.8-41.5c5.7-4.7,14.1-4.2,19,1.7
			c4.6,5.9,3.8,14.8-1.9,19.5l-47.6,32.1l49.5,61.1C1399.1,310.7,1398.3,319.3,1392.6,324z"/>
	</g>
	<g>
		<path d="M520.9,313.7c0,7.8-6.3,13.9-13.6,13.9h-93.9c-0.3,0-0.3,0-0.5,0c-0.3,0-0.3,0-0.5,0c-7.6,0-13.6-6.1-13.6-13.9V147
			c0-7.8,6-13.9,13.6-13.9c0.3,0,0.3,0,0.5,0c0.3,0,0.3,0,0.5,0h93.9c7.3,0,13.6,6.1,13.6,13.9c0,7.8-6.3,13.9-13.6,13.9H426v56h62
			c7.3,0,13.6,6.1,13.6,13.9s-6.3,13.9-13.6,13.9h-62v54.9h81.3C514.7,299.8,520.9,305.9,520.9,313.7z"/>
		<path d="M657.5,259.1v54.7c0,8.1-5.7,13.9-13.6,13.9c-5.4,0-13.1-5.9-13.1-13.9c-11.7,10-24.8,13.9-40.3,13.9
			c-38.4,0-68.8-29.3-68.8-68.6s30.5-70.5,68.8-70.5C628.9,188.5,657.5,219.8,657.5,259.1z M630.8,259.1c0-23.4-17.4-43.2-40.3-43.2
			c-22.9,0-42.2,19.8-42.2,43.2c0,23.4,19.3,41.3,42.2,41.3C613.4,300.3,630.8,282.5,630.8,259.1z"/>
		<path d="M753.2,286.1c0,23.1-18.2,42.1-40.8,42.1c-19.3,0-34.8-14.2-40-30.4c-2.4-7.2,3.3-14.8,10.3-16.5
			c7.3-1.4,12.5,3.9,16.1,10.9c3.8,7.2,7.1,8.4,13.6,8.4c7.6,0,13.9-6.4,13.9-14.5c0-7.8-6.3-14.2-13.9-14.2
			c-10.9,0-21.2-4.5-28.8-12.3c-7.9-7.8-12-18.4-12-29.6c0-23.1,18.2-41.8,40.8-41.8c19,0,36.5,13.4,39.2,29
			c1.4,7.5-3,15.1-10.3,16.5c-7.3,1.7-13.6-3.3-16.1-10.3c-1.6-4.5-6.3-7.5-12.8-7.5c-7.6,0-13.9,6.4-13.9,14.2
			c0,7.8,6.3,14.2,13.9,14.2c10.9,0,21.2,4.5,28.8,12.3C749.1,264.7,753.2,275,753.2,286.1z"/>
		<path d="M771.9,156.3c-2.4-2.5-4.1-6.1-4.1-9.8c0-3.6,1.6-7.2,4.1-9.8c2.4-2.5,6-4.2,9.5-4.2c3.5,0,7.1,1.7,9.5,4.2
			c2.4,2.5,3.8,6.1,3.8,9.8c0,3.6-1.4,7.2-3.8,9.8c-2.4,2.5-6,3.9-9.5,3.9C777.9,160.2,774.3,158.8,771.9,156.3z M767.8,314.2V201.8
			c0-7.5,6-13.7,13.6-13.7c7.3,0,13.3,6.1,13.3,13.7v112.4c0,7.8-6,13.9-13.3,13.9C773.8,328.1,767.8,322,767.8,314.2z"/>
	</g>
	<circle class="st8" cx="781.3" cy="149.4" r="24.3"/>
	<path class="st9" d="M849,144.2C849,144.2,849,144.2,849,144.2"/>
	<path class="st10" d="M827.3,90.7L827.3,90.7L827.3,90.7c-11-5.1-22.3-8-33.7-8.5c-11.4-0.6-22.7,1.1-33.1,4.9
		c-10.4,3.8-20,9.9-27.4,18.3c-7.4,8.3-12.4,18.9-13.7,31v0l0,0l0,0v0c-0.7-2.9-1.1-6-1.1-9.1c0-3.1,0.3-6.2,1-9.3
		c0.6-3.1,1.7-6.1,3-9c1.3-2.9,2.8-5.7,4.7-8.4C734.1,89.8,745,82,757,77.6c12-4.4,25.1-5.5,37.5-3.3
		C806.8,76.5,818.7,82,827.3,90.7L827.3,90.7L827.3,90.7z"/>
	<path class="st9" d="M849,144.2C849,144.2,849,144.2,849,144.2"/>
	<path class="st10" d="M699.4,115.8c-1.8-7.5-1.7-15.6,0.1-23.4c1.8-7.8,5.3-15.2,10-21.8c4.7-6.6,10.6-12.3,17.3-16.9
		c6.6-4.7,13.9-8.3,21.6-10.8c15.3-5.1,31.9-5.9,47.5-2.6c7.8,1.7,15.3,4.4,22.3,8.2c6.9,3.8,13.2,8.6,18.4,14.4
		c-13-8.3-27.3-13.2-41.9-14.8c-14.6-1.7-29.4-0.2-43.1,4.3c-13.7,4.6-26.3,12.3-35.9,23.2c-4.8,5.4-8.7,11.6-11.5,18.4
		c-1.4,3.4-2.5,7-3.3,10.6c-0.2,0.9-0.4,1.8-0.5,2.8l-0.4,2.8C699.7,111.9,699.6,113.8,699.4,115.8z"/>
	<path class="st10" d="M681.3,98.7c-3.1-9.2-3.9-19.4-2.4-29.3c1.5-9.9,5.3-19.6,10.9-28c2.8-4.2,6-8.2,9.5-11.9
		c3.5-3.7,7.3-7,11.4-10c4.1-3,8.4-5.6,12.9-8c4.5-2.3,9.2-4.2,14-5.9c19.2-6.5,40.1-7.3,59.5-2.7l3.6,0.9c1.2,0.3,2.4,0.7,3.6,1.1
		c2.4,0.7,4.7,1.6,7.1,2.5c4.6,1.9,9.1,4.1,13.4,6.6c4.2,2.6,8.3,5.4,12,8.6c0.9,0.8,1.8,1.7,2.7,2.5c0.9,0.8,1.8,1.7,2.6,2.6
		c1.7,1.7,3.3,3.6,4.8,5.5c-15.1-12.2-33-19.7-51.4-22.6c-18.4-2.9-37.4-1.5-54.8,4.4c-17.4,5.8-33.4,16.3-44.6,30.9
		c-5.6,7.2-9.9,15.6-12.5,24.6c-1.3,4.5-2.1,9.1-2.6,13.9c-0.2,2.4-0.3,4.8-0.2,7.1C680.9,93.9,681,96.3,681.3,98.7z"/>
	<linearGradient id="SVGID_4_" gradientUnits="userSpaceOnUse" x1="186.4931" y1="164.213" x2="275.5655" y2="102.9129">
		<stop  offset="0.2331" style="stop-color:#02A0C6;stop-opacity:0"/>
		<stop  offset="0.9121" style="stop-color:#91D6E5"/>
	</linearGradient>
	<path class="st11" d="M318.9,181L210.4,72.5c-12.8-12.8-33.6-12.8-46.4,0l-12.3,12.3L318.9,181z"/>
</g>
</svg>
